<svg width="40" height="40" viewBox="0 0 40 40" fill="none" xmlns="http://www.w3.org/2000/svg">
<path fill-rule="evenodd" clip-rule="evenodd" d="M26.3958 2.43997L6.23978 22.596C5.93846 22.8965 5.74089 23.2854 5.67578 23.706L4.26578 32.894C4.2182 33.2043 4.24434 33.5215 4.3421 33.8198C4.43985 34.1181 4.60647 34.3893 4.82846 34.6113C5.05046 34.8333 5.3216 34.9999 5.61994 35.0976C5.91829 35.1954 6.23545 35.2215 6.54578 35.174L15.7358 33.764C16.1561 33.6994 16.5449 33.5025 16.8458 33.202L37.0018 13.046C37.3767 12.6709 37.5874 12.1623 37.5874 11.632C37.5874 11.1016 37.3767 10.593 37.0018 10.218L29.2218 2.43797C28.8468 2.06364 28.3386 1.85339 27.8088 1.85339C27.2789 1.85339 26.7708 2.06364 26.3958 2.43797V2.43997ZM8.63378 30.808L9.52978 24.96L27.8098 6.67997L32.7598 11.632L14.4798 29.912L8.63378 30.808V30.808Z" fill="#0057A8"/>
<path d="M22.8838 10.4939L25.0038 8.37195L31.4878 14.8519L29.3658 16.9739L22.8838 10.4939Z" fill="#0057A8"/>
</svg>
