<svg width="40" height="42" viewBox="0 0 40 42" fill="none" xmlns="http://www.w3.org/2000/svg">
<path d="M15.0002 8.93774H11.6668C10.7828 8.93774 9.93493 9.30084 9.30981 9.94715C8.68469 10.5935 8.3335 11.47 8.3335 12.3841V33.062C8.3335 33.9761 8.68469 34.8526 9.30981 35.499C9.93493 36.1453 10.7828 36.5084 11.6668 36.5084H28.3335C29.2176 36.5084 30.0654 36.1453 30.6905 35.499C31.3156 34.8526 31.6668 33.9761 31.6668 33.062V12.3841C31.6668 11.47 31.3156 10.5935 30.6905 9.94715C30.0654 9.30084 29.2176 8.93774 28.3335 8.93774H25.0002" stroke="#0057A8" stroke-width="3.33333" stroke-linecap="round" stroke-linejoin="round"/>
<path d="M21.6667 5.49146H18.3333C16.4924 5.49146 15 7.03443 15 8.93778C15 10.8411 16.4924 12.3841 18.3333 12.3841H21.6667C23.5076 12.3841 25 10.8411 25 8.93778C25 7.03443 23.5076 5.49146 21.6667 5.49146Z" stroke="#0057A8" stroke-width="3.33333" stroke-linecap="round" stroke-linejoin="round"/>
<path d="M16.667 24.4462H23.3337M20.0003 20.9999V27.8925" stroke="#0057A8" stroke-width="3.33333" stroke-linecap="round" stroke-linejoin="round"/>
</svg>
