<svg width="40" height="40" viewBox="0 0 40 40" fill="none" xmlns="http://www.w3.org/2000/svg">
<path d="M7.50023 20.8333L20.8336 7.49999C22.3807 5.95289 24.479 5.08374 26.6669 5.08374C28.8548 5.08374 30.9531 5.95289 32.5002 7.49999C34.0473 9.04708 34.9165 11.1454 34.9165 13.3333C34.9165 15.5212 34.0473 17.6196 32.5002 19.1667L19.1669 32.5C17.6198 34.0471 15.5215 34.9162 13.3336 34.9162C11.1456 34.9162 9.04733 34.0471 7.50023 32.5C5.95313 30.9529 5.08398 28.8546 5.08398 26.6667C5.08398 24.4787 5.95313 22.3804 7.50023 20.8333M14.1669 14.1667L25.8336 25.8333" stroke="#0057A8" stroke-width="3.33333" stroke-linecap="round" stroke-linejoin="round"/>
</svg>
